<svg xmlns="http://www.w3.org/2000/svg" xmlns:xlink="http://www.w3.org/1999/xlink" viewBox="0 0 750 500"><defs><style>.cls-1{fill:#9d022e;}.cls-2{fill:url(#linear-gradient);}.cls-3{fill:#dca86e;}.cls-4{fill:url(#linear-gradient-2);}.cls-5{fill:#2167be;}.cls-6{fill:url(#linear-gradient-3);}.cls-7{fill:#277fd9;}.cls-8{fill:#fec4ad;}.cls-9{fill:url(#linear-gradient-4);}.cls-10{fill:url(#linear-gradient-5);}.cls-11{fill:#f8d2a1;}.cls-12{fill:none;stroke:#a6aeba;stroke-miterlimit:10;stroke-width:0.5px;}.cls-13{fill:#50cc85;}.cls-14{fill:#77e6a6;}.cls-15{fill:#d2dceb;}.cls-16{fill:#f3ba7a;}.cls-17{fill:#a6aeba;}.cls-18{fill:#b6bfcc;}.cls-19{fill:#fff;}</style><linearGradient id="linear-gradient" x1="1631.81" y1="-1216.89" x2="1833.07" y2="-1216.89" gradientTransform="translate(-1357.44 1434.39)" gradientUnits="userSpaceOnUse"><stop offset="0" stop-color="#fff"/><stop offset="0.13" stop-color="#fff" stop-opacity="0.9"/><stop offset="0.4" stop-color="#fff" stop-opacity="0.64"/><stop offset="0.79" stop-color="#fff" stop-opacity="0.23"/><stop offset="1" stop-color="#fff" stop-opacity="0"/></linearGradient><linearGradient id="linear-gradient-2" x1="288.79" y1="-155.77" x2="307.35" y2="-155.77" gradientTransform="matrix(0.81, 0.59, -0.59, 0.81, 88.53, 320.56)" gradientUnits="userSpaceOnUse"><stop offset="0" stop-color="#343a44"/><stop offset="0.3" stop-color="#232d3e"/><stop offset="0.64" stop-color="#182439"/><stop offset="1" stop-color="#142138"/></linearGradient><linearGradient id="linear-gradient-3" x1="438.75" y1="373.29" x2="457.31" y2="373.29" gradientTransform="matrix(1, 0, 0, 1, 0, 0)" xlink:href="#linear-gradient-2"/><linearGradient id="linear-gradient-4" x1="-1009.59" y1="-399.35" x2="-989.47" y2="-399.35" gradientTransform="matrix(-0.66, -0.75, -0.75, 0.66, -421.03, -209.23)" xlink:href="#linear-gradient-2"/><linearGradient id="linear-gradient-5" x1="473.3" y1="315.37" x2="534.86" y2="315.37" gradientTransform="matrix(1, 0, 0, 1, 0, 0)" xlink:href="#linear-gradient-2"/></defs><title>Artboard 1 copy</title><g id="OBJECTS"><path class="cls-1" d="M290.8,417.65v6.17h-3.61V406.3H294a7.91,7.91,0,0,1,3.47.72,5.39,5.39,0,0,1,2.31,2.06,5.75,5.75,0,0,1,.8,3,5,5,0,0,1-1.76,4.06,7.35,7.35,0,0,1-4.88,1.49Zm0-2.93H294a3.14,3.14,0,0,0,2.18-.67,2.43,2.43,0,0,0,.76-1.93,2.92,2.92,0,0,0-.76-2.08,2.8,2.8,0,0,0-2.09-.81H290.8Z"/><path class="cls-1" d="M310.83,420.21H304.5l-1.2,3.61h-3.84L306,406.3h3.34l6.56,17.52H312Zm-5.36-2.92h4.38l-2.2-6.56Z"/><path class="cls-1" d="M331.12,421.6a6.26,6.26,0,0,1-2.76,1.81,11.47,11.47,0,0,1-3.94.65,7.73,7.73,0,0,1-4-1,6.68,6.68,0,0,1-2.65-2.88,10,10,0,0,1-.95-4.43v-1.2a10.79,10.79,0,0,1,.88-4.54,6.54,6.54,0,0,1,2.55-2.93,8.38,8.38,0,0,1,8.78.47,6.36,6.36,0,0,1,2.08,4.32h-3.51a3.51,3.51,0,0,0-1.07-2.2,3.42,3.42,0,0,0-2.27-.7,3.19,3.19,0,0,0-2.8,1.39,7.21,7.21,0,0,0-1,4.11v1.12a7,7,0,0,0,1,4.16,3.59,3.59,0,0,0,3.07,1.41,4,4,0,0,0,2.9-.87v-3h-3.28v-2.66h6.89Z"/><path class="cls-1" d="M344.58,416.23h-6.93v4.69h8.13v2.9H334V406.3h11.72v2.93h-8.11v4.17h6.93Z"/><path class="cls-1" d="M368.27,423.82h-3.6l-7-11.53v11.53H354V406.3h3.61l7,11.55V406.3h3.59Z"/><path class="cls-1" d="M385.81,415.46a10.56,10.56,0,0,1-.91,4.53,6.89,6.89,0,0,1-2.62,3,7.72,7.72,0,0,1-7.79,0,6.88,6.88,0,0,1-2.64-3,10.21,10.21,0,0,1-1-4.47v-.86a10.58,10.58,0,0,1,.93-4.56,7,7,0,0,1,2.63-3,7.75,7.75,0,0,1,7.79,0,7,7,0,0,1,2.63,3,10.55,10.55,0,0,1,.93,4.54Zm-3.65-.8a7.33,7.33,0,0,0-1-4.18,3.48,3.48,0,0,0-5.62,0,7.34,7.34,0,0,0-1,4.14v.86a7.44,7.44,0,0,0,1,4.16,3.22,3.22,0,0,0,2.84,1.48,3.18,3.18,0,0,0,2.79-1.43,7.41,7.41,0,0,0,1-4.15Z"/><path class="cls-1" d="M400.6,409.23h-5.37v14.59h-3.61V409.23h-5.29V406.3H400.6Z"/><path class="cls-1" d="M418.6,416.66h-6.93v7.16h-3.6V406.3h11.4v2.93h-7.8v4.52h6.93Z"/><path class="cls-1" d="M436,415.46A10.56,10.56,0,0,1,435,420a6.87,6.87,0,0,1-2.61,3,7.72,7.72,0,0,1-7.79,0,7,7,0,0,1-2.65-3,10.35,10.35,0,0,1-1-4.47v-.86a10.44,10.44,0,0,1,.94-4.56,6.94,6.94,0,0,1,2.63-3,7.73,7.73,0,0,1,7.78,0,7,7,0,0,1,2.64,3,10.55,10.55,0,0,1,.93,4.54Zm-3.66-.8a7.42,7.42,0,0,0-1-4.18,3.48,3.48,0,0,0-5.62,0,7.26,7.26,0,0,0-1,4.14v.86a7.44,7.44,0,0,0,1,4.16,3.45,3.45,0,0,0,5.63.05,7.41,7.41,0,0,0,1-4.15Z"/><path class="cls-1" d="M451.83,406.3v11.54a5.89,5.89,0,0,1-1.8,4.54,8.07,8.07,0,0,1-9.79.05A5.83,5.83,0,0,1,438.4,418V406.3H442v11.56a3.34,3.34,0,0,0,.83,2.51,3.11,3.11,0,0,0,2.27.79q3,0,3.1-3.2V406.3Z"/><path class="cls-1" d="M469,423.82h-3.61l-7-11.53v11.53h-3.61V406.3h3.61l7,11.55V406.3H469Z"/><path class="cls-1" d="M472.18,423.82V406.3h5.39a8.23,8.23,0,0,1,4.13,1,7.3,7.3,0,0,1,2.84,3,9.06,9.06,0,0,1,1,4.36v.81a9.14,9.14,0,0,1-1,4.34,7.19,7.19,0,0,1-2.83,2.95,8.24,8.24,0,0,1-4.13,1.06Zm3.61-14.59v11.69h1.74a3.92,3.92,0,0,0,3.24-1.39,6.3,6.3,0,0,0,1.14-3.95v-.93a6.35,6.35,0,0,0-1.11-4,3.89,3.89,0,0,0-3.23-1.37Z"/><path class="cls-1" d="M271,234.83h20.68v36.34H271v43.18h-47.1V271.17H145.19l-2.79-28.79,81.47-131.09v-.42H271Zm-83.71,0h36.61v-62.6L220.94,177Z"/><path class="cls-1" d="M453.62,231.2q0,41.24-18.51,63.59t-52.2,22.36q-34,0-52.55-22.5T311.78,231.2V194q0-41.24,18.51-63.59t52.34-22.36q33.83,0,52.41,22.5t18.58,63.59ZM406.53,188q0-21.95-5.73-32.77t-18.17-10.84q-12.17,0-17.68,10.07T359,184.94v52q0,22.79,5.73,33.33t18.17,10.55q12,0,17.75-10.27t5.87-32.21Z"/><path class="cls-1" d="M602.46,234.83h20.68v36.34H602.46v43.18h-47.1V271.17H476.68l-2.79-28.79,81.47-131.09v-.42h47.1Zm-83.71,0h36.61v-62.6L552.43,177Z"/><rect class="cls-2" x="274.37" y="-60.29" width="201.26" height="555.57" transform="translate(157.5 592.5) rotate(-90)"/><polygon class="cls-3" points="507.65 336.03 528.77 381.68 531.15 381.67 512.89 333.06 507.65 336.03"/><polygon class="cls-3" points="485.8 337 464.68 381.68 462.3 381.67 480.56 335.99 485.8 337"/><path class="cls-4" d="M432.14,371.9l-10.74,9.39-12.65-8.91s4.31-1.44,11.69.52l7.56-6.35Z"/><path class="cls-5" d="M494.28,320.08s-23.73,12.16-32.11,15.8-36.9,32.19-36.9,32.19,3.65,7.44,5.48,6.13c16.1-11.51,30.94-21.81,40.47-25.4,18.87-7.12,24.13-8.67,29-14.27C500.19,334.53,497.35,327.79,494.28,320.08Z"/><path class="cls-6" d="M457.31,367.1,454.22,381l-15.47.3s2.62-3.71,9.73-6.49l2.34-9.6Z"/><path class="cls-7" d="M494.86,317s-22.07,2.38-30.12,6.72-14.45,44.06-14.45,44.06,6.25,3.39,7,1.28a288.53,288.53,0,0,1,13.17-30.3c7.93-1.45,26.29,7.49,39.57-5.59C510.05,333.16,498.57,324.42,494.86,317Z"/><path class="cls-8" d="M532.88,290.17a29.43,29.43,0,0,0-2.59,5.94l-9.08-.84s4.68-7.1,4.33-11.41Z"/><path class="cls-8" d="M530.93,275.5a10.19,10.19,0,0,0-2.85-.52c-.54.23.09.94-.29,1.38-.62.7-1.86.72-2.66,1.15a5.2,5.2,0,0,0-2.15,2c-.74,1.3,1.95,4.2,2.37,6.37.88,4.54,6.63,5.22,11.29,3.82a8,8,0,0,0,4.12-3.45c1.07-1.71.46-4.57-.43-6.27a7.9,7.9,0,0,0-2.53-2.55c-.84-.58-1.08-3-2.09-3.16C535.71,274.25,532.09,275.8,530.93,275.5Z"/><path class="cls-9" d="M544,287.7s-.16-.76,1.16-2c4.35-4.1-.31-12.13-5-13.52-2.43-.72-4,0-4.85-2.38.06.18-1,.62-1.09.71a1.88,1.88,0,0,0-.86,1.61c-.08,3.51,3.06,6.77,5.43,9,1.07,1-1.56.31-2.62.51-.68.13-2.47,2-2.86,2.31,1,1.24,1.88.12,3.23.72s.45,2.13-.7,2.32a2.44,2.44,0,0,1-2.52-.9c-.82.45-1,3.11-1.6,3.8a33.38,33.38,0,0,0,7.3,1.39A5.2,5.2,0,0,0,544,287.7Z"/><path class="cls-1" d="M532.59,291.58c1.9,21.23-22.54,41.58-22.54,41.58s-16,.6-15.19-16.17c0,0,1.24-3.05,11.12-12,6.6-6,11.24-14.91,15.88-14.73C534.55,290.74,532.59,291.58,532.59,291.58Z"/><path class="cls-10" d="M473.3,334.33s14.72,5.49,34.34-1.95,25-42.19,25-42.19l2.25,1.14s-2.19,38.35-28,46.68c-19.74,6.37-33.54-1.22-33.54-1.22Z"/><path class="cls-11" d="M530.23,312.79s2.35,8.14,2.48,12.2-1.6,17.84-1.6,17.84l3.73.48s3.33-16.43,3.4-21.79-3-14-3-14Z"/><path class="cls-1" d="M530,313.13c2.72,11.86,1.59,27.76,1.59,27.76l4.06.26c4.45-9.31,4-29.93,1.68-38.6-1.38-5.1-2.19-10.23-5.64-11-2.16-.49-6.59,1.09-7.19,3.22C523.2,299.36,528.66,307.31,530,313.13Z"/><path class="cls-11" d="M529.43,344.88c-.89,1.71-1.3,3-.77,3.39.36.3,1-1.36,1.66-1.95a5.19,5.19,0,0,1-.21,3.06c-.5,1.23-.46,2.28.48,2.37s2.45,0,2.79-.74,1.11-4,1.52-5.08-.14-2.31,0-2.92-2.76-1.65-2.76-1.65c-.16.25-1,1.47-1,1.47a10,10,0,0,1-1,1.08A3.58,3.58,0,0,0,529.43,344.88Z"/><line class="cls-12" x1="236.1" y1="381.45" x2="556.37" y2="381.45"/><path class="cls-13" d="M352.53,283.06a19.58,19.58,0,0,1,2.78-4.57c1.79-2.16,4.47-5.74,4.47-5.74s-1.31,2.55-3.08,5.44A22.1,22.1,0,0,1,352.53,283.06Z"/><path class="cls-13" d="M354.38,278.86a11.39,11.39,0,0,0,3.18-4.87c1.2-3.3,2.28-5.82,2.28-5.82a47.43,47.43,0,0,0-3.68,6.24C355.05,277,354.38,278.86,354.38,278.86Z"/><path class="cls-13" d="M352.66,282.6a41.33,41.33,0,0,0,1.24-6.8c.21-3,.18-4.91.18-4.91s-1.31,5.47-1.7,7.8A7.49,7.49,0,0,0,352.66,282.6Z"/><path class="cls-13" d="M351.77,285.11a22.1,22.1,0,0,0-.76-7.38,23,23,0,0,1-1.16-5.69,23.68,23.68,0,0,0,.1,6.79A46,46,0,0,0,351.77,285.11Z"/><path class="cls-13" d="M352.09,284.25a23.44,23.44,0,0,1,4.17-2.92,16.91,16.91,0,0,0,3.34-2.18s-2.4,3.08-3.74,3.69S352.09,284.25,352.09,284.25Z"/><path class="cls-13" d="M351.14,287.55a11.11,11.11,0,0,0-1-5.14,26.26,26.26,0,0,1-1.52-4.5s-.08,4.09.74,5.62S351.14,287.55,351.14,287.55Z"/><path class="cls-13" d="M351.4,286a8.79,8.79,0,0,1,3.12-1.27,7.53,7.53,0,0,0,1.94-.43,3.65,3.65,0,0,1-2.67,1.66A6,6,0,0,1,351.4,286Z"/><path class="cls-13" d="M350.36,289.58c.34-1.34.78-3.4,1.24-4.78a41.78,41.78,0,0,1,3.4-7c-1.46,3.24-2.53,5.07-3.27,7.86-.29,1.11-.79,2.65-1.06,3.65C350.62,289.61,350.4,289.84,350.36,289.58Z"/><path class="cls-14" d="M351.06,284.15a20.81,20.81,0,0,0-1.21-5.56c-1.06-2.78-2.51-7.32-2.51-7.32s.43,3,1.21,6.54A23.32,23.32,0,0,0,351.06,284.15Z"/><path class="cls-14" d="M350.65,279.28a12.07,12.07,0,0,1-1.51-6c-.06-3.73-.28-6.64-.28-6.64a50,50,0,0,1,1.54,7.55C350.63,277.15,350.65,279.28,350.65,279.28Z"/><path class="cls-14" d="M351.09,283.64a44.16,44.16,0,0,1,1.1-7.27c.84-3.1,1.52-5,1.52-5s-.58,6-1,8.43A8,8,0,0,1,351.09,283.64Z"/><path class="cls-14" d="M351.12,286.47a23.36,23.36,0,0,1,3.31-7.15,24.52,24.52,0,0,0,3.13-5.33,24.77,24.77,0,0,1-2.45,6.79A47.53,47.53,0,0,1,351.12,286.47Z"/><path class="cls-14" d="M351.09,285.49a24.86,24.86,0,0,0-3.18-4.37,17.73,17.73,0,0,1-2.61-3.34s1.35,3.92,2.49,5S351.09,285.49,351.09,285.49Z"/><path class="cls-14" d="M350.9,289.14a11.88,11.88,0,0,1,2.76-4.83,28.5,28.5,0,0,0,3.08-4s-1.34,4.14-2.69,5.4S350.9,289.14,350.9,289.14Z"/><path class="cls-14" d="M351.18,287.5a9.38,9.38,0,0,0-2.7-2.36,8.13,8.13,0,0,1-1.8-1.1,3.85,3.85,0,0,0,2.11,2.58A6.5,6.5,0,0,0,351.18,287.5Z"/><path class="cls-13" d="M351,291.45c.12-1.46.39-3.69.41-5.24a44.91,44.91,0,0,0-1-8.18c.35,3.76.79,6,.56,9-.09,1.21-.11,2.93-.19,4C350.71,291.39,350.85,291.7,351,291.45Z"/><path class="cls-13" d="M349,284.73a20,20,0,0,0-2.78-4.58c-1.8-2.15-4.48-5.74-4.48-5.74s1.31,2.56,3.08,5.44A21.9,21.9,0,0,0,349,284.73Z"/><path class="cls-13" d="M347.1,280.52a11.5,11.5,0,0,1-3.18-4.86c-1.19-3.31-2.28-5.83-2.28-5.83a46.72,46.72,0,0,1,3.69,6.25C346.43,278.63,347.1,280.52,347.1,280.52Z"/><path class="cls-13" d="M348.83,284.26a42,42,0,0,1-1.25-6.8c-.2-3-.18-4.91-.18-4.91s1.31,5.47,1.71,7.8A7.6,7.6,0,0,1,348.83,284.26Z"/><path class="cls-13" d="M349.71,286.77a22,22,0,0,1,.77-7.38,23.24,23.24,0,0,0,1.15-5.69,23.29,23.29,0,0,1-.1,6.79A44.39,44.39,0,0,1,349.71,286.77Z"/><path class="cls-13" d="M349.39,285.91a23.79,23.79,0,0,0-4.16-2.92,16.44,16.44,0,0,1-3.35-2.17s2.41,3.07,3.75,3.68S349.39,285.91,349.39,285.91Z"/><path class="cls-13" d="M350.35,289.21a11.14,11.14,0,0,1,1-5.13,27.36,27.36,0,0,0,1.53-4.51s.07,4.09-.74,5.63A41.72,41.72,0,0,0,350.35,289.21Z"/><path class="cls-13" d="M350.09,287.67a9,9,0,0,0-3.12-1.28A7.2,7.2,0,0,1,345,286a3.62,3.62,0,0,0,2.66,1.65A6.3,6.3,0,0,0,350.09,287.67Z"/><path class="cls-13" d="M351.13,291.24c-.35-1.33-.79-3.4-1.24-4.78a42.64,42.64,0,0,0-3.4-7c1.46,3.25,2.53,5.07,3.26,7.87.29,1.1.8,2.64,1.07,3.65C350.86,291.27,351.08,291.5,351.13,291.24Z"/><polygon class="cls-15" points="354.64 300.58 347.14 300.58 344.82 287.37 357.23 287.37 354.64 300.58"/><polygon class="cls-3" points="440.31 304.21 452.68 381.53 455.06 381.52 445.27 304.19 440.31 304.21"/><polygon class="cls-3" points="355.06 304.24 338.96 381.64 335.75 381.65 348.38 304.26 355.06 304.24"/><rect class="cls-3" x="329.71" y="299.69" width="133.06" height="5.95"/><rect class="cls-16" x="323.33" y="299.69" width="145.81" height="3.95"/><polygon class="cls-17" points="428.37 297.6 423.19 297.6 418.02 264.58 421.95 264.58 428.37 297.6"/><polygon class="cls-15" points="426.88 297.6 406.68 297.6 401.51 264.58 421.71 264.58 426.88 297.6"/><rect class="cls-15" x="406.41" y="296.85" width="21.96" height="2.46"/><rect class="cls-17" x="428.37" y="296.85" width="27.68" height="2.46"/><path class="cls-17" d="M415.79,282.7c.58,2.53.17,5.26-.92,6.1s-2.45-.53-3-3.06-.17-5.26.92-6.1S415.2,280.17,415.79,282.7Z"/><path class="cls-17" d="M384.37,299.2H381.5a2.4,2.4,0,0,1-2.37-2L378,289.8h9.9l-1.15,7.37A2.4,2.4,0,0,1,384.37,299.2Z"/><path class="cls-17" d="M387,297.63h-.45l-.1-.08a4.58,4.58,0,0,1-1.75-3.24c0-1.92,1.28-3.48,2.84-3.48a3,3,0,0,1,2.31,1,3.06,3.06,0,0,1,.53,2.58h0C390,296.46,388.8,297.63,387,297.63Zm-.1-.9c1.8.06,2.37-1.33,2.59-2.52h0a2.18,2.18,0,0,0-.33-1.84,2.08,2.08,0,0,0-1.62-.66c-1.07,0-1.94,1.16-1.94,2.58A3.62,3.62,0,0,0,386.92,296.73Z"/><polygon class="cls-15" points="377 299.85 389.55 299.85 391.55 297.63 375 297.63 377 299.85"/><rect class="cls-18" x="250.49" y="251.65" width="60.03" height="129.85"/><rect class="cls-15" x="257.4" y="257.33" width="46.21" height="13.62"/><rect class="cls-19" x="274.47" y="262.48" width="12.08" height="3.3" rx="0.8" ry="0.8"/><rect class="cls-15" x="257.4" y="274.65" width="46.21" height="13.62"/><rect class="cls-19" x="274.47" y="279.81" width="12.08" height="3.3" rx="0.8" ry="0.8"/><rect class="cls-15" x="257.4" y="291.98" width="46.21" height="13.62"/><rect class="cls-19" x="274.47" y="297.14" width="12.08" height="3.3" rx="0.8" ry="0.8"/><rect class="cls-15" x="257.4" y="309.5" width="46.21" height="66.74"/><rect class="cls-19" x="274.47" y="314.66" width="12.08" height="3.3" rx="0.8" ry="0.8"/></g></svg>