<svg xmlns="http://www.w3.org/2000/svg" xmlns:xlink="http://www.w3.org/1999/xlink" viewBox="0 0 750 500"><defs><style>.cls-1{isolation:isolate;}.cls-2,.cls-78{fill:#9d022e;}.cls-3{fill:url(#linear-gradient);}.cls-4,.cls-6{fill:#2f2c36;}.cls-32,.cls-4,.cls-49,.cls-5{opacity:0.3;}.cls-53,.cls-54,.cls-7{fill:#27242e;}.cls-8{fill:#f29d38;}.cls-34,.cls-9{fill:#f28437;}.cls-10{fill:#87a89c;}.cls-11,.cls-54{opacity:0.7;}.cls-12{fill:#815f45;}.cls-13{fill:#706351;}.cls-14{fill:#634e3f;}.cls-15,.cls-16,.cls-17,.cls-31,.cls-36,.cls-58,.cls-65{opacity:0.6;}.cls-15,.cls-16,.cls-17{mix-blend-mode:screen;}.cls-15{fill:url(#radial-gradient);}.cls-16{fill:url(#radial-gradient-2);}.cls-17{fill:url(#radial-gradient-3);}.cls-18{fill:#544e5e;}.cls-19{fill:#635c6d;}.cls-20{fill:#f2f2f2;}.cls-21{fill:#413e47;}.cls-22{fill:#cf5f3d;}.cls-23{fill:url(#linear-gradient-2);}.cls-24,.cls-32,.cls-39{fill:#46464c;}.cls-25,.cls-77,.cls-78{opacity:0.5;}.cls-26{fill:#9e4327;}.cls-27{fill:#c13131;}.cls-28{fill:#c1cfc9;}.cls-29{fill:#4e4857;}.cls-30{fill:#eceaeb;}.cls-31,.cls-45{fill:none;stroke-miterlimit:10;}.cls-31{stroke:#524c5c;stroke-width:10.44px;}.cls-33{fill:#838396;}.cls-34,.cls-53,.cls-60{opacity:0.4;}.cls-35{fill:#8b8d8c;}.cls-36,.cls-53,.cls-54{mix-blend-mode:darken;}.cls-37,.cls-64{opacity:0.2;}.cls-37,.cls-64,.cls-78{mix-blend-mode:multiply;}.cls-38{fill:#a14449;}.cls-39{stroke:#46464c;stroke-linejoin:round;}.cls-40{fill:#b54a32;}.cls-41{fill:#342f3a;}.cls-42{fill:#414442;}.cls-43{fill:#98957f;}.cls-44{fill:#5b5e5c;}.cls-45{stroke:#5b5e5c;stroke-width:11px;}.cls-46{fill:#586175;}.cls-47{fill:#afbcce;}.cls-48{fill:#5e767f;}.cls-49{fill:#212135;}.cls-50{fill:#848196;}.cls-51{fill:#6b7389;}.cls-52{fill:#bbbacd;}.cls-55{fill:#ef7c2f;}.cls-56{fill:#b9c7c1;}.cls-57{fill:#554f5e;}.cls-58{fill:#53535a;}.cls-59{fill:#635d6d;}.cls-60{fill:#7e7e8b;}.cls-61{fill:#36333d;}.cls-62{fill:#e7814e;}.cls-63{fill:#ea594e;}.cls-64{fill:#2b8b93;}.cls-65{fill:#44444b;}.cls-66{fill:#f29a97;}.cls-67{fill:#3e3847;}.cls-68{fill:#504a59;}.cls-69{fill:#48484e;}.cls-70{fill:#c6c6d0;}.cls-71{fill:#f2aa9c;}.cls-72{fill:#e89d90;}.cls-73{fill:url(#linear-gradient-3);}.cls-74{fill:url(#linear-gradient-4);}.cls-75{fill:#36a5e2;}.cls-76{fill:#2488b9;}.cls-77{fill:#136b91;}</style><linearGradient id="linear-gradient" x1="752.89" y1="-325.86" x2="954.15" y2="-325.86" gradientTransform="translate(-468.49 541.27)" gradientUnits="userSpaceOnUse"><stop offset="0" stop-color="#fff"/><stop offset="0.13" stop-color="#fff" stop-opacity="0.9"/><stop offset="0.4" stop-color="#fff" stop-opacity="0.64"/><stop offset="0.79" stop-color="#fff" stop-opacity="0.23"/><stop offset="1" stop-color="#fff" stop-opacity="0"/></linearGradient><radialGradient id="radial-gradient" cx="359.98" cy="238.62" r="0.16" gradientTransform="translate(40.27 0) scale(1.02 1)" gradientUnits="userSpaceOnUse"><stop offset="0" stop-color="#f2f2f2"/><stop offset="1" stop-color="#262223"/></radialGradient><radialGradient id="radial-gradient-2" cx="425.8" cy="230.51" r="66.71" xlink:href="#radial-gradient"/><radialGradient id="radial-gradient-3" cx="348.46" cy="238.62" r="0.16" xlink:href="#radial-gradient"/><linearGradient id="linear-gradient-2" x1="351.92" y1="308.6" x2="351.92" y2="276.44" gradientUnits="userSpaceOnUse"><stop offset="0" stop-color="#cf5f3d"/><stop offset="1" stop-color="#f28437"/></linearGradient><linearGradient id="linear-gradient-3" x1="370.49" y1="278.88" x2="392.67" y2="278.88" gradientUnits="userSpaceOnUse"><stop offset="0" stop-color="#343a44"/><stop offset="0.3" stop-color="#232d3e"/><stop offset="0.64" stop-color="#182439"/><stop offset="1" stop-color="#142138"/></linearGradient><linearGradient id="linear-gradient-4" x1="370.68" y1="279.74" x2="390.36" y2="279.74" xlink:href="#linear-gradient-3"/></defs><title>Artboard 1 copy 2</title><g class="cls-1"><g id="OBJECTS"><path class="cls-2" d="M159.42,212.88l12.44-104.09H290.78v36.62H210.15l-4.61,40.42a55.32,55.32,0,0,1,13.2-5.2,60.57,60.57,0,0,1,16-2.24q30.33,0,46.61,18t16.28,50.38a72.21,72.21,0,0,1-8.73,35.42,60,60,0,0,1-24.53,24.39q-15.8,8.52-37.31,8.52a83.31,83.31,0,0,1-35.92-7.89q-16.77-7.87-26.27-21.64a52.52,52.52,0,0,1-9.36-31.07h47.23q.7,11.16,7.13,17.71t16.91,6.56q23.76,0,23.76-35.15,0-32.49-29.07-32.49-16.5,0-24.6,10.6Z"/><path class="cls-2" d="M463.66,229.12q0,41.22-18.52,63.58t-52.2,22.36q-34,0-52.54-22.5t-18.59-63.44V191.94q0-41.22,18.52-63.58T392.66,106q33.82,0,52.41,22.5t18.59,63.58Zm-47.1-43.19q0-21.93-5.73-32.77t-18.17-10.83q-12.15,0-17.67,10.06t-5.94,30.47v52q0,22.77,5.73,33.33t18.16,10.55q12,0,17.75-10.27t5.87-32.21Z"/><path class="cls-2" d="M629.4,229.12q0,41.22-18.51,63.58t-52.2,22.36q-34,0-52.55-22.5t-18.58-63.44V191.94q0-41.22,18.51-63.58T558.41,106q33.81,0,52.41,22.5t18.58,63.58Zm-47.09-43.19q0-21.93-5.73-32.77t-18.17-10.83q-12.17,0-17.68,10.06t-5.94,30.47v52q0,22.77,5.73,33.33t18.17,10.55q12,0,17.75-10.27t5.87-32.21Z"/><rect class="cls-3" x="284.4" y="-62.37" width="201.26" height="555.57" transform="translate(169.62 600.45) rotate(-90)"/><path class="cls-4" d="M517.41,337H264.49c-2.76,0-2.3,3.37,0,3.37H373.17a1.61,1.61,0,0,0-.27.89,1.71,1.71,0,0,0,1.72,1.69h56.2a1.71,1.71,0,0,0,1.72-1.69,1.61,1.61,0,0,0-.27-.89h85.14C518.6,340.41,518.75,337,517.41,337Z"/><g class="cls-5"><path class="cls-6" d="M478.59,345.79a1.71,1.71,0,0,1-1.72,1.68h-49a1.69,1.69,0,1,1,0-3.37h49A1.71,1.71,0,0,1,478.59,345.79Z"/></g><rect class="cls-7" x="419.59" y="317.13" width="16.96" height="7.47" rx="3.43" ry="3.43"/><path class="cls-8" d="M467.15,265.48l17.29,0a1.37,1.37,0,0,0,1.39-1.35v-4.28a1.38,1.38,0,0,0-1.37-1.36H472.8Z"/><path class="cls-6" d="M481,295.15h18.66c8.55,0,15.48,9.91,15.48,22.14s-6.93,22.14-15.48,22.14H492l-5.38-24.57Z"/><path class="cls-6" d="M481.8,295.15c8.55,0,25.07,9.91,25.07,22.14S500,339.43,491.4,339.43s-15.48-9.91-15.48-22.14S473.25,295.15,481.8,295.15Z"/><path class="cls-6" d="M274.19,310.82a4.62,4.62,0,0,0,4.75,4.63l7.63-.19c2.61-.06,5.14,1.3,5.62,3s3,3.14,5.61,3.14H496.25a4.76,4.76,0,0,0,4.75-4.75V293.79a4.75,4.75,0,0,0-4.75-4.74l-217.31.4a4.78,4.78,0,0,0-4.75,4.76Z"/><path class="cls-6" d="M297,295.15h9.06c8.55,0,15.48,9.91,15.48,22.14s-6.93,22.14-15.48,22.14h-7.68L293,314.86Z"/><path class="cls-9" d="M444.46,310.09H431.87V284.93l-18.48-3.07L387.45,289l7,21h-17.9l-1.12-10.54c-.61-5.78-4.45-10.51-8.54-10.51H348.29c-4.09,0-8,4.73-8.59,10.5l-10.76,10.55L328.18,285H307.37a1.26,1.26,0,0,1-1.24-1.27v-6c0-2.58,9.6-5.37,9.6-6.2a1.38,1.38,0,0,1,1.18-1.51h2.29v-1c0-.54-9.6,20.93-9.6,17l9.6-9.16v-9.82c0-1.5,2.22-2.73,3.37-2.73h19.19L344.82,240c.26-2.46,1.72-6.55,5.8-6.55h87.21c12.66,0,17.76,4.44,22.5,8.88L478.45,262c10.9,1.07,29.77,6.93,38,11.2.75.38,3.7,1.29,3.7,6.94v29.94Z"/><path class="cls-10" d="M406,260.59l-17.49-19c-.34-.38-.7-.76-1-1.13a16.38,16.38,0,0,1-1.5-1.72,7.52,7.52,0,0,1,1.76-.15H448c4.63,0,7.36,2.58,9.16,4.28l.24.22,16.1,17.46Z"/><g class="cls-11"><path class="cls-12" d="M415.38,241.38h15.41l.85,20.09h9.82l-2.53-20.09h.63c11.26,0,15.33,3.76,19.22,7.41l11.7,12.68h3.65c-.79-.82-1.45-1.53-1.83-2a1,1,0,0,0-.21-.2l-12-13.06c-4.2-3.94-8.6-8-20.48-8h-2.69l-.06-.51H432.2l0,.51H386.58l4.41,5.79,9.8,12.3,2,2.18L411,261.6l0-17.59s.14-2.63,1.29-2.63h3Z"/></g><path class="cls-13" d="M406,260.59h28.56a5.23,5.23,0,0,0,.09-1v-1.09a5.22,5.22,0,0,0-5.25-5.15H408.64a5.24,5.24,0,0,0-5.2,4.43Z"/><path class="cls-10" d="M397.74,243.84h-6.91l.16.21,9.8,12.3.53.58a4.89,4.89,0,0,0,.55-1.93l.39-6.46A4.44,4.44,0,0,0,397.74,243.84Z"/><path class="cls-14" d="M444.27,254.26a12.21,12.21,0,0,0-10.74,6.33h3.32a9.47,9.47,0,0,1,14.83,0H455A12.23,12.23,0,0,0,444.27,254.26Z"/><path class="cls-15" d="M407,238.63h0Z"/><path class="cls-16" d="M440,243.13l-.3-.22c-2.33-1.7-5.85-4.28-10.49-4.28h-27.9c4.64,0,8.16,2.58,10.49,4.28l.3.22,19,15.44.2.65a39.41,39.41,0,0,0,4.87.27h23.11l-.28-.92Z"/><path class="cls-17" d="M395.3,238.63h0Z"/><path class="cls-18" d="M448,239.73c4.18,0,6.61,2.3,8.39,4l.2.19,14.39,15.6H406.51l-17.15-18.58c-.36-.41-.72-.79-1.07-1.16l0,0Zm0-2.2H387.73c-5.43,0-2.3,2.29,0,4.83l17.82,19.32H476l-17.83-19.32c-1.81-1.69-4.87-4.83-10.2-4.83Z"/><path class="cls-19" d="M441.22,295.11a14.85,14.85,0,0,1,1.19,4.43l1.16,13.69h79.19A1.25,1.25,0,0,0,524,312V296.65a1.37,1.37,0,0,0-1.17-1.5c-.65,0-2.29,0-2.29,0Z"/><rect class="cls-20" x="472.89" y="297.05" width="30.44" height="12.34" rx="0.63" ry="0.63"/><polygon class="cls-21" points="315.53 315.03 397.06 315.03 399.43 287.49 315.53 287.49 315.53 315.03"/><path class="cls-22" d="M258.73,296.09h1.34V264.94c0-1.51.94-2.74,2.09-2.74H324L327,240c.27-2.46,1.73-6.55,5.8-6.55h30c12.66,0,17.76,4.44,22.5,8.88L403.42,262c10.9,1.07,29.77,6.93,38,11.2.75.38,3.7,1.29,3.7,6.94v15l-15.79,14.92-1.11-10.54c-.62-5.78-4.46-10.51-8.55-10.51H405.37c-4.09,0-7.95,4.73-8.58,10.5l-1.16,10.55H318.15L317,299.55c-.61-5.78-4.45-10.51-8.54-10.51H289.86c-4.09,0-8,4.73-8.59,10.5l-1.16,9.93H258.8a1.27,1.27,0,0,1-1.24-1.27V297.59A1.38,1.38,0,0,1,258.73,296.09Z"/><g class="cls-5"><path class="cls-23" d="M261.94,300.79a1.74,1.74,0,0,0,1.73,1.74h15.52a1.88,1.88,0,0,0,1.9-1.5A14,14,0,0,1,282,298l6.42-8a7.48,7.48,0,0,1,3.22-.88H310a7.43,7.43,0,0,1,3.22.89l6.38,8a17.05,17.05,0,0,1,.94,3.3l.58,3.67a2.08,2.08,0,0,0,2,1.71h70.8a2.12,2.12,0,0,0,2-1.71l.6-3.68a16.61,16.61,0,0,1,1-3.3l6.41-8a7.57,7.57,0,0,1,3.23-.88h17.13a2.6,2.6,0,0,1,2.29,1.64l2,7.17a14.56,14.56,0,0,0-.12,3.43l.75,7.09c.1.95.68,1.13,1.3.4l10.36-12.28a5.54,5.54,0,0,0,1.11-3.06v-6.76a11.22,11.22,0,0,0-.07-1.75,2.33,2.33,0,0,0-2.14-1.69H405.23a2.82,2.82,0,0,0-2.12.69,1.67,1.67,0,0,1-2.69,0,2.8,2.8,0,0,0-2.12-.69H364.61c-1,0-1.89.36-2.07.81a1.45,1.45,0,0,1-1.22.8,1.87,1.87,0,0,1-1.39-.8,3,3,0,0,0-2.24-.81H333.3a3,3,0,0,0-2.11.63,1.5,1.5,0,0,1-1.17.64,1.57,1.57,0,0,1-1.19-.64,3.11,3.11,0,0,0-2.14-.63h-63a1.74,1.74,0,0,0-1.73,1.73Z"/></g><path class="cls-13" d="M397.11,263.39l-14.45-15.67c-4-3.78-8.24-7.69-19.86-7.69H335.61a2,2,0,0,0-1.85.94,6.29,6.29,0,0,0-.56,3.1l0,.19-1.64,18.64,65.53,3.29Z"/><path class="cls-10" d="M382.66,247.72a35.62,35.62,0,0,0-4.67-3.88H340.28a5.13,5.13,0,0,0-5.08,4.7l-.39,6.46a4.42,4.42,0,0,0,4.51,4.7h48.32a5.17,5.17,0,0,0,4.12-2.1Z"/><path class="cls-13" d="M391.57,257.34a5.25,5.25,0,0,0-5.1-4H365.69a5.25,5.25,0,0,0-5.08,3.88h-22.1c-2.89,0-5.25,1.63-5.25,3.63s2.36,3.64,5.25,3.64h25.6a5.49,5.49,0,0,0,1.58.24h20.78a5.49,5.49,0,0,0,1.58-.24h2.39c2.89,0,5.25-1.64,5.25-3.64C395.69,259.16,393.92,257.7,391.57,257.34Z"/><path class="cls-24" d="M335.61,241.59H362.8c11.27,0,15.33,3.76,19.23,7.41l14,15.17v.4l-63.21-3.17,1.47-16.74,0-.44s.13-2.63,1.29-2.63Zm0-3.12c-3.32,0-3.49,5.8-3.49,5.8l-1.78,20.13,67.86,3.4v-5.19l-14.91-16.16c-4.2-3.94-8.6-8-20.49-8Z"/><path class="cls-24" d="M362,240l3.1,24.61-5.62-.21L358,240h4Z"/><polygon class="cls-24" points="355.01 264.53 361.5 264.33 358.01 238.58 353.92 238.77 355.01 264.53"/><path class="cls-24" d="M395.55,259.71c.8.94,2.92,3.12,4.85,5.08s1.35,3.23-.12,3.15l-6.55-.36v-8.5A2.42,2.42,0,0,1,395.55,259.71Z"/><polygon class="cls-22" points="357.41 272.14 363.99 272.14 360.06 237.96 355.45 237.96 357.41 272.14"/><path class="cls-21" d="M431.87,313.31a2.87,2.87,0,0,1-2.85-2.58l-1.12-10.89c-.39-3.74-2.91-7.93-5.68-7.93h-18c-2.78,0-5.32,4.2-5.74,7.95l-1.15,10.55a2.87,2.87,0,1,1-5.71-.63l1.16-10.55c.8-7.32,5.83-13.06,11.44-13.06h18c5.61,0,10.62,5.75,11.39,13.08l1.12,10.89a2.87,2.87,0,0,1-2.57,3.15Z"/><polygon class="cls-24" points="338.7 240.03 337.64 263.2 335.6 263.1 337.25 240.03 338.7 240.03"/><path class="cls-21" d="M282.46,295.11a14.85,14.85,0,0,0-1.19,4.43l-1.16,10.55H257.84a1.26,1.26,0,0,1-1.24-1.27V296.65a1.38,1.38,0,0,1,1.17-1.5h2.3v0Z"/><path class="cls-21" d="M429.51,295.11a15.16,15.16,0,0,1,1.19,4.43l1.16,13.69h14.59a1.26,1.26,0,0,0,1.24-1.27V296.65a1.38,1.38,0,0,0-1.18-1.5c-.65,0-2.29,0-2.29,0Z"/><g class="cls-25"><path class="cls-26" d="M359.51,309.93h0a.77.77,0,0,1-.77-.79l.44-43.26-2.07-28.77a.78.78,0,1,1,1.56-.11l2.08,28.8v.07l-.45,43.29A.77.77,0,0,1,359.51,309.93Z"/></g><path class="cls-27" d="M260.07,269.57H263a1.56,1.56,0,0,1,1.56,1.56v16.56a1.57,1.57,0,0,1-1.56,1.57h-2.9Z"/><rect class="cls-28" x="450.32" y="299.25" width="9.44" height="8.58" rx="1.9" ry="1.9"/><rect class="cls-28" x="512.21" y="299.25" width="9.44" height="8.58" rx="1.9" ry="1.9"/><rect class="cls-20" x="508.36" y="279.22" width="13.6" height="9.83" rx="3.17" ry="3.17"/><path class="cls-21" d="M318.15,313a2.87,2.87,0,0,1-2.85-2.57l-1.11-10.54c-.4-3.75-2.92-7.94-5.69-7.94H289.86c-2.3,0-5.24,3.4-5.74,7.95,0,0,0,.07,0,.11L283,307.7a2.87,2.87,0,1,1-5.68-.86l1.15-7.67c.83-7.29,5.84-13,11.44-13H308.5c5.62,0,10.62,5.75,11.4,13.08L321,309.79a2.87,2.87,0,0,1-2.55,3.16Z"/><g class="cls-25"><path class="cls-26" d="M328.68,309.93a.78.78,0,0,1-.79-.78l-.05-44.62s0,0,0-.08l2.35-23.62v-.05c0-.22.89-5.24,4.89-5.24,2.63,0,6.74,0,11.1.07,7.86.07,16.77.15,19.56,0,6.07-.25,11.52,2,17.14,6.95,5.4,4.79,18.76,19.75,19.33,20.39a.77.77,0,0,1,.2.52v2.68c0,.78.2,13.43.32,20a.79.79,0,0,1-1.57,0c0-.78-.34-19.07-.32-20.06v-2.36c-1.71-1.92-14-15.62-19-20-5.3-4.7-10.39-6.78-16-6.56-2.83.12-11.77,0-19.65,0-4.35,0-8.45-.08-11.08-.08s-3.28,3.61-3.34,3.91l-2.34,23.56,0,44.58a.78.78,0,0,1-.78.78Z"/></g><ellipse class="cls-29" cx="298.65" cy="317.29" rx="15.48" ry="22.14"/><ellipse class="cls-30" cx="298.65" cy="317.29" rx="8.98" ry="12.84"/><ellipse class="cls-31" cx="298.65" cy="317.29" rx="12.58" ry="17.99"/><ellipse class="cls-24" cx="298.65" cy="317.29" rx="7.63" ry="10.91"/><polygon class="cls-30" points="299.06 316.33 304.4 309.32 306.39 314.25 299.48 317.35 299.06 316.33"/><polygon class="cls-30" points="299.08 318.2 299.5 317.18 306.42 320.25 304.43 325.19 299.08 318.2"/><polygon class="cls-30" points="296.85 328.57 298.47 318 298.93 318 300.61 328.57 296.85 328.57"/><polygon class="cls-30" points="291.01 320.32 297.88 317.23 298.29 318.25 293 325.25 291.01 320.32"/><polygon class="cls-30" points="290.98 314.32 292.95 309.4 298.27 316.38 297.86 317.4 290.98 314.32"/><polygon class="cls-30" points="298.43 316.57 296.79 306.01 300.55 306.01 298.89 316.57 298.43 316.57"/><ellipse class="cls-30" cx="297.28" cy="317.29" rx="6.46" ry="9.25"/><ellipse class="cls-32" cx="297.28" cy="317.29" rx="5.11" ry="7.32"/><path class="cls-33" d="M284.94,318a.68.68,0,0,1-.68-.69c0-8.1,3.4-15.41,8.65-18.63a.69.69,0,0,1,.72,1.18c-4.86,3-8,9.81-8,17.45A.69.69,0,0,1,284.94,318Z"/><path class="cls-34" d="M441.4,273.21c-8.21-4.27-27.08-10.13-38-11.2L385.3,242.36c-4.74-4.44-9.84-8.88-22.5-8.88h-30a5.11,5.11,0,0,0-4.53,2.67,5,5,0,0,1,2.47-.61h32c12.66,0,17.76,4.44,22.5,8.88l18.12,19.65c10.9,1.07,27.71,6.93,35.92,11.2.75.38,3.7,1.29,3.7,6.93v12.85l2.06.12v-15C445.1,274.5,442.15,273.59,441.4,273.21Z"/><path class="cls-29" d="M461.42,289.93a4.18,4.18,0,0,0,4.2,4.12h35.19a4.18,4.18,0,0,0,4.2-4.12v-5a4.18,4.18,0,0,0-4.2-4.12H465.62a4.18,4.18,0,0,0-4.2,4.12Z"/><path class="cls-22" d="M500.81,280.78h-3.5a4.18,4.18,0,0,1,4.2,4.12v5a4.18,4.18,0,0,1-4.2,4.12h3.5a4.18,4.18,0,0,0,4.2-4.12v-5A4.18,4.18,0,0,0,500.81,280.78Z"/><polygon class="cls-18" points="475.66 261.37 483.09 263.71 416.73 263.71 405.44 261.37 475.66 261.37"/><path class="cls-35" d="M521.54,317.43h-5.38a6.81,6.81,0,0,1-6.81-6.81V289.3a2.7,2.7,0,0,0-2.7-2.69H472.57a2.69,2.69,0,0,0-2.69,2.69v21.32a6.82,6.82,0,0,1-6.82,6.81h-5.82a5.77,5.77,0,0,1-5.81-7.12l1.28-6.18a8.14,8.14,0,0,1,7.73-6.3h5.32V289.3a6.82,6.82,0,0,1,6.81-6.81h34.08a6.82,6.82,0,0,1,6.81,6.81v8.87h4.88a8.17,8.17,0,0,1,7.75,6.29l1.23,5.84a5.74,5.74,0,0,1-5.78,7.13Zm-8.08-15.14v8.33a2.7,2.7,0,0,0,2.7,2.7h5.38a1.66,1.66,0,0,0,1.75-2.17l-1.23-5.84a4.09,4.09,0,0,0-3.72-3Zm-53-.34a4,4,0,0,0-3.7,3l-1.27,6.18a1.84,1.84,0,0,0,.29,1.57,1.87,1.87,0,0,0,1.48.61h5.82a2.7,2.7,0,0,0,2.7-2.7V302Z"/><g class="cls-36"><path class="cls-21" d="M517.64,317.41h-5.29a6.81,6.81,0,0,1-6.87-6.74v-18a2.7,2.7,0,0,0-2.72-2.67h-34a2.7,2.7,0,0,0-2.72,2.67v18a6.82,6.82,0,0,1-6.88,6.74h-5.73a6.06,6.06,0,0,1-4.72-2.1,5.82,5.82,0,0,1-1.17-4.95l1.3-6.26a8.13,8.13,0,0,1,7.79-6.25h5.25v-5.16a6.82,6.82,0,0,1,6.88-6.75h34a6.82,6.82,0,0,1,6.87,6.75v5.5h4.81a8.18,8.18,0,0,1,7.81,6.24l1.25,5.93a5.78,5.78,0,0,1-1.14,4.95A6.06,6.06,0,0,1,517.64,317.41Zm-8-15.14v8.4a2.7,2.7,0,0,0,2.72,2.67h5.29a1.9,1.9,0,0,0,1.49-.6,1.82,1.82,0,0,0,.3-1.56l-1.25-5.93a4.08,4.08,0,0,0-3.74-3Zm-53-.34a4.06,4.06,0,0,0-3.72,3l-1.29,6.27a1.79,1.79,0,0,0,.31,1.56,1.9,1.9,0,0,0,1.5.61h5.73a2.7,2.7,0,0,0,2.72-2.67v-8.74Z"/></g><rect class="cls-35" x="467.82" y="306.47" width="44.4" height="4.12"/><g class="cls-37"><rect class="cls-38" x="366" y="270.37" width="6.44" height="4.89" rx="1.93" ry="1.93"/></g><path class="cls-24" d="M372.24,274h-7a1.16,1.16,0,0,1,0-2.31h7a1.16,1.16,0,0,1,0,2.31Z"/><g class="cls-37"><rect class="cls-38" x="334" y="270.37" width="6.44" height="4.89" rx="1.93" ry="1.93"/></g><path class="cls-24" d="M340.24,274h-6.95a1.16,1.16,0,1,1,0-2.31h6.95a1.16,1.16,0,1,1,0,2.31Z"/><path class="cls-35" d="M521.49,317.41h-5.28a6.81,6.81,0,0,1-6.88-6.74V289.25a2.69,2.69,0,0,0-2.72-2.66h-34a2.69,2.69,0,0,0-2.72,2.66v21.42a6.82,6.82,0,0,1-6.88,6.74h-5.73a6.06,6.06,0,0,1-4.72-2.1,5.82,5.82,0,0,1-1.17-4.95l1.3-6.26a8.13,8.13,0,0,1,7.79-6.25h5.25v-8.6a6.82,6.82,0,0,1,6.88-6.74h34a6.83,6.83,0,0,1,6.88,6.74v8.94h4.8a8.18,8.18,0,0,1,7.81,6.24l1.25,5.93a5.78,5.78,0,0,1-1.14,4.95A6.06,6.06,0,0,1,521.49,317.41Zm-8-15.14v8.4a2.7,2.7,0,0,0,2.72,2.67h5.28a1.9,1.9,0,0,0,1.49-.6,1.82,1.82,0,0,0,.3-1.56L522,305.25a4.08,4.08,0,0,0-3.74-3Zm-53-.34a4.06,4.06,0,0,0-3.72,3l-1.29,6.27a1.79,1.79,0,0,0,.31,1.56,1.9,1.9,0,0,0,1.5.61H463a2.7,2.7,0,0,0,2.72-2.67v-8.74Z"/><path class="cls-22" d="M396.54,265.49h-17.3a1.37,1.37,0,0,1-1.38-1.35v-4.28a1.37,1.37,0,0,1,1.38-1.36h11.65Z"/><path class="cls-9" d="M398.2,265.49H383a1.37,1.37,0,0,1-1.38-1.35v-4.28A1.37,1.37,0,0,1,383,258.5h9.55Z"/><path class="cls-39" d="M390.89,258.16s1.09.72,2.84,4.38c1.57,3.3-3,3.3-3,3.3h7.78l-6-7.68Z"/><rect class="cls-40" x="420.58" y="279.59" width="7.03" height="4" rx="1.39" ry="1.39"/><rect class="cls-29" x="331.74" y="297.31" width="58.23" height="2.4" rx="0.94" ry="0.94"/><path class="cls-30" d="M298.21,316.94c0-1.55-.88-2.82-2-2.82s-2,1.27-2,2.83.88,2.82,2,2.82S298.21,318.5,298.21,316.94Z"/><rect class="cls-41" x="377.07" y="333.08" width="9.11" height="5.39"/><rect class="cls-41" x="377.36" y="315.03" width="10.14" height="3.82"/><polygon class="cls-42" points="388.62 337.71 386.44 334.63 394.57 328.87 394.57 326.23 386.44 320.47 388.62 317.39 398.35 324.28 398.35 330.82 388.62 337.71"/><polygon class="cls-43" points="387.53 338.06 376.02 338.06 365.83 330.82 365.83 324.28 376.02 317.04 387.53 317.04 387.53 320.82 377.23 320.82 369.61 326.23 369.61 328.87 377.23 334.28 387.53 334.28 387.53 338.06"/><path class="cls-44" d="M397.11,328.41H371.17a.86.86,0,0,1,0-1.72h25.94a.86.86,0,0,1,0,1.72Z"/><polygon class="cls-45" points="399.92 329.84 390.98 336.17 380.08 336.17 371.17 329.84 371.17 325.26 380.08 318.93 390.98 318.93 399.92 325.26 399.92 329.84"/><rect class="cls-41" x="380.8" y="315.03" width="10.14" height="3.82"/><rect class="cls-41" x="381.15" y="333.08" width="9.11" height="5.39"/><rect class="cls-43" x="372.9" y="337.74" width="14.6" height="3.56"/><rect class="cls-44" x="376" y="337.74" width="18.37" height="3.56"/><ellipse class="cls-46" cx="419.59" cy="317.22" rx="9.06" ry="12.77"/><ellipse class="cls-47" cx="417.24" cy="317.22" rx="9.06" ry="12.77"/><rect class="cls-48" x="405.21" y="311.45" width="7.71" height="10.78" rx="1.72" ry="1.72"/><ellipse class="cls-46" cx="417.27" cy="317.22" rx="5.37" ry="7.56"/><path class="cls-49" d="M414.29,317.22c0-1.39.81-2.53,1.8-2.53s1.79,1.14,1.79,2.53-.8,2.54-1.79,2.54S414.29,318.62,414.29,317.22Z"/><ellipse class="cls-50" cx="415.36" cy="317.22" rx="5.37" ry="7.56"/><path class="cls-51" d="M414.51,311.24h.72a1,1,0,0,1,.53.2,1.42,1.42,0,0,1,.33,1.57,1,1,0,0,1-.85.65h-.73Z"/><path class="cls-52" d="M414.51,313.66a.83.83,0,0,1-.53-.2,1.42,1.42,0,0,1-.33-1.57,1,1,0,0,1,.86-.65.83.83,0,0,1,.53.2,1.4,1.4,0,0,1,.32,1.57A1,1,0,0,1,414.51,313.66Z"/><path class="cls-51" d="M414.51,320.64h.72a1.09,1.09,0,0,1,.53.19,1.44,1.44,0,0,1,.33,1.58,1,1,0,0,1-.85.65h-.73Z"/><path class="cls-52" d="M414.51,323.06a.83.83,0,0,1-.53-.2,1.42,1.42,0,0,1-.33-1.57,1,1,0,0,1,.86-.65.88.88,0,0,1,.53.19,1.42,1.42,0,0,1,.32,1.58A1,1,0,0,1,414.51,323.06Z"/><path class="cls-51" d="M411.64,315.94h.72a1.06,1.06,0,0,1,.53.2,1.42,1.42,0,0,1,.33,1.57,1,1,0,0,1-.86.65h-.72Z"/><path class="cls-52" d="M411.64,318.36a.83.83,0,0,1-.53-.2,1.42,1.42,0,0,1-.33-1.57,1,1,0,0,1,.86-.65.83.83,0,0,1,.53.2,1.4,1.4,0,0,1,.32,1.57A1,1,0,0,1,411.64,318.36Z"/><path class="cls-51" d="M415.47,319.76c1,0,1.8-1.14,1.8-2.54s-.81-2.53-1.8-2.53h-.83v5.07Z"/><path class="cls-47" d="M412.84,317.22c0-1.39.81-2.53,1.8-2.53s1.79,1.14,1.79,2.53-.8,2.54-1.79,2.54S412.84,318.62,412.84,317.22Z"/><path class="cls-51" d="M417.38,315.94h.73a1,1,0,0,1,.52.2,1.4,1.4,0,0,1,.33,1.57,1,1,0,0,1-.85.65h-.73Z"/><path class="cls-52" d="M417.38,318.36a.83.83,0,0,1-.53-.2,1.42,1.42,0,0,1-.33-1.57,1,1,0,0,1,.86-.65.83.83,0,0,1,.53.2,1.4,1.4,0,0,1,.32,1.57A1,1,0,0,1,417.38,318.36Z"/><path class="cls-53" d="M417.24,304.46c-3.95,0-7.31,3.55-8.55,8.52h12.12l2.66,1.23h2.58l3.23,5.26c-.89-13.87-5.74-15-9.69-15a6.45,6.45,0,0,0-1.17.11A6.64,6.64,0,0,0,417.24,304.46Z"/><polygon class="cls-54" points="391.52 316.54 390.94 316.54 390.94 315.03 387.5 315.03 380.8 315.03 377.36 315.03 377.36 316.54 376.09 316.54 370.12 320.24 376 318.57 392.75 318.57 397.51 320.24 391.52 316.54"/><path class="cls-55" d="M264.91,264.26h53.91l3.72-2.06H262.16a2.29,2.29,0,0,0-2,2.06Z"/><rect class="cls-20" x="438.16" y="278.91" width="20.64" height="9.83" rx="3.17" ry="3.17"/><rect class="cls-56" x="438.08" y="278.91" width="7.03" height="9.83" rx="2.08" ry="2.08"/><rect class="cls-57" x="426.06" y="330.75" width="39.92" height="15.75" rx="2.46" ry="2.46"/><path class="cls-58" d="M463.19,330.75h-4l-.27.23-6.8,14.19H426.57l0,0a2.6,2.6,0,0,0,2,1.31h34.5c1.21,0,2.92-1,2.92-2.22v-11A3,3,0,0,0,463.19,330.75Z"/><path class="cls-59" d="M438.3,344.89a.74.74,0,0,0,.74-.74V333a.74.74,0,0,1,.74-.74H459c.41,0,.74-.19.74-.43s-.33-.42-.74-.42H428.54c-.41,0-.74.19-.74.42s.33.43.74.43h1a.74.74,0,0,1,.74.74v11.14a.74.74,0,0,0,.74.74Z"/><path class="cls-60" d="M463.19,330.78H460.4a2.8,2.8,0,0,1,2.79,2.79v10.16a2.8,2.8,0,0,1-2.79,2.79h2.79a2.79,2.79,0,0,0,2.79-2.79V333.57A2.8,2.8,0,0,0,463.19,330.78Z"/><path class="cls-61" d="M466,334.12v-.89H426.06v.89h.61l.91,2.83h-1.52v.66H466V337h-.58l-.91-2.83Zm-35.67,0h1.2l1.35,2.83h-1.38Zm.35,2.83h-1l-1-2.83h.85Zm1.79-2.83H434L435.5,337h-1.74Zm2.59,0h1.69l1.64,2.83h-1.9Zm2.81,0h1.82l1.79,2.83H439.4Zm3,0h1.52l1.92,2.83h-1.77Zm2.81,0h2l1.93,2.83h-2.17Zm3.11,0h2L450.6,337h-2Zm3.22,0h1.89l1.63,2.83h-1.85Zm3,0h2l1.49,2.83h-1.91Zm3,0h1.84l1.35,2.83h-1.76Zm2.78,0h1.49l1.2,2.83h-1.39Zm2.34,0h1.13l1.06,2.83h-1Zm-33.81,0h.5L428.9,337h-.65ZM464.73,337h-.65l-1-2.83h.78Z"/><path class="cls-61" d="M464.51,343.25l.91-2.83H466v-.67H426.08v.67h1.52l-.91,2.83h-.61v.88H466v-.88Zm-33-2.83h1.38l-1.35,2.83h-1.21Zm-2,2.83h-.85l1.05-2.83h1Zm4.3-2.83h1.75L434,343.25h-1.56Zm2.72,0h1.9l-1.64,2.83h-1.69Zm2.93,0h2.06l-1.79,2.83h-1.82Zm3.15,0h1.77l-1.93,2.83H440.9Zm2.93,0h2.17l-1.93,2.83h-2Zm3.1,0h2l-1.79,2.83h-2Zm3.11,0h1.85l-1.64,2.83H450Zm2.89,0h1.91L455,343.25h-2Zm2.88,0h1.75l-1.34,2.83h-1.84Zm2.65,0h1.39l-1.21,2.83h-1.48Zm2.21,0h1l-1.05,2.83h-1.13Zm-34.07,0h.65l-1.06,2.83h-.5Zm35.57,2.83h-.78l1-2.83h.65Z"/><path class="cls-61" d="M426.4,345a2.8,2.8,0,0,0,2.46,1.47h34.33a2.8,2.8,0,0,0,2.46-1.47Z"/><path class="cls-4" d="M427.12,365.39H371.26a1.72,1.72,0,0,0-1.72,1.71v2a1.56,1.56,0,0,0,.11.57H319.29a1.69,1.69,0,1,0,0,3.37h90.17a1.71,1.71,0,0,0,1.72-1.69,1.62,1.62,0,0,0-.1-.54h16a1.72,1.72,0,0,0,1.72-1.71v-2A1.72,1.72,0,0,0,427.12,365.39Z"/><path class="cls-62" d="M316.77,363s3.5-4.46,3.42-4.2,4.2,5.57,4.2,5.57l-2.14,2.52Z"/><path class="cls-63" d="M371.87,366.26H360.82a2.83,2.83,0,0,0-2.82,2.82v3h16.69v-3A2.83,2.83,0,0,0,371.87,366.26Z"/><path class="cls-64" d="M371.54,372.1h3.15v-3a2.83,2.83,0,0,0-2.82-2.82H360.82a2.83,2.83,0,0,0-2.34,1.24h10.44c2.76,0,2.62.8,2.62,1.63Z"/><path class="cls-63" d="M327.79,366.21h-5.6a34.76,34.76,0,0,0-4.65-3.81c-.49-.24-1.58.38-2.32,1.78l-1.71,3.63,6.35,4.24h10.75v-3A2.83,2.83,0,0,0,327.79,366.21Z"/><path class="cls-64" d="M327.46,372.05h3.15v-3a2.83,2.83,0,0,0-2.82-2.82h-5.6c-1,0,5.27.57,5.27,2.88Z"/><polygon class="cls-65" points="313.51 367.81 319.88 372.05 330.61 372.05 330.61 370.16 320.22 370.16 314.25 366.25 313.51 367.81"/><rect class="cls-65" x="358" y="370.16" width="16.69" height="1.89"/><circle class="cls-66" cx="376.2" cy="331.26" r="3.97" transform="translate(-98.61 170.58) rotate(-22.67)"/><path class="cls-67" d="M396.35,324.73h-9.06c-8.55,0-15.48,9.92-15.48,22.14S378.74,369,387.29,369H395l5.38-24.58Z"/><ellipse class="cls-68" cx="394.74" cy="346.87" rx="15.48" ry="22.14"/><ellipse class="cls-20" cx="394.74" cy="346.87" rx="8.98" ry="12.84"/><ellipse class="cls-69" cx="394.74" cy="346.87" rx="7.63" ry="10.91"/><polygon class="cls-20" points="387 343.84 388.99 338.91 394.32 345.92 393.91 346.94 387 343.84"/><polygon class="cls-20" points="386.97 349.84 393.89 346.76 394.3 347.79 388.96 354.77 386.97 349.84"/><polygon class="cls-20" points="392.78 358.16 394.46 347.59 394.92 347.59 396.54 358.16 392.78 358.16"/><polygon class="cls-20" points="395.09 347.83 395.5 346.81 402.37 349.91 400.38 354.84 395.09 347.83"/><polygon class="cls-20" points="395.11 345.96 400.43 338.98 402.4 343.91 395.52 346.99 395.11 345.96"/><polygon class="cls-20" points="394.5 346.16 392.83 335.59 396.6 335.59 394.96 346.16 394.5 346.16"/><ellipse class="cls-20" cx="396.11" cy="346.87" rx="6.46" ry="9.25"/><ellipse class="cls-32" cx="396.11" cy="346.87" rx="5.11" ry="7.32"/><circle class="cls-66" cx="390.49" cy="325.82" r="3.97" transform="translate(-95.41 175.67) rotate(-22.67)"/><circle class="cls-20" cx="388.23" cy="324.53" r="3.31" transform="translate(-115.77 369.57) rotate(-45)"/><circle class="cls-70" cx="373.52" cy="329.18" r="3.31" transform="translate(-32.95 616.68) rotate(-76.66)"/><path class="cls-71" d="M374.21,281.37l-8.13,9a3.38,3.38,0,0,0-.3,4.16,3.48,3.48,0,0,0,1.16.07,3.4,3.4,0,0,0,2.09-1.09l8.14-9a2.32,2.32,0,1,0-3-3.15Z"/><path class="cls-71" d="M374.78,274.28l-1.95,4.6c-2.42,3.94-2.9,9,1,11.38s8.47,2.34,11.42-1.32l4.26-6.68Z"/><path class="cls-72" d="M385.37,289.16l4.31-6.76-2.47-1.34a7.36,7.36,0,0,0-.87,1.18c-1.29,2.19-3.41,6.11-5.76,7.8s-6.52.39-7.75-.68a8.32,8.32,0,0,0,1.74,1.41C378.56,293.23,382.38,292.87,385.37,289.16Z"/><path class="cls-73" d="M385.08,272.4c3.44,1.49,5.26,5,6.36,7.06a7.08,7.08,0,0,0,1.23,1.6,3.18,3.18,0,0,1-3,1.61,10.41,10.41,0,0,0-2.17-1.31c-5.22-1.94-5.41,1.71-6.47,2.83-1.93,2-9.37,3.23-10.19.82-1-3,.79-6.16.79-6.16l1.81-3.34C375.49,271.48,380.39,270.37,385.08,272.4Z"/><path class="cls-74" d="M382.86,274.12a10.12,10.12,0,0,0-8.1-.27,7.62,7.62,0,0,0-1.17,1.66l-1.81,3.34S370,282,371,285c.63,1.85,5.18,1.58,8.13.42.59-1,1.11-2.65,3-2.88.75-1.28,2-2.49,5.49-1.19a10.41,10.41,0,0,1,2.17,1.31,2.14,2.14,0,0,0,.54,0,7,7,0,0,1-1.13-1.51C388.13,279.11,386.31,275.61,382.86,274.12Z"/><path class="cls-72" d="M384.62,289.33c.49.76,1.84,1.33,1.91.33l.18-3.8Z"/><ellipse class="cls-20" cx="368.42" cy="291.56" rx="5.25" ry="5.71" transform="translate(12.38 598.11) rotate(-79.09)"/><path class="cls-2" d="M372.4,331.83a3.5,3.5,0,0,1-1.27-.38c-17.72-9.37-11.41-36.86-11.13-38a3.43,3.43,0,0,1,6.67,1.59c-.08.34-5.32,23.51,7.67,30.37a3.43,3.43,0,0,1-1.94,6.45Z"/><path class="cls-2" d="M341.64,325.82a10.29,10.29,0,0,1-7.72-17.1c.5-.57,12.39-13.94,27-21.05a10.3,10.3,0,1,1,9,18.52c-10.78,5.24-20.48,16-20.58,16.15A10.27,10.27,0,0,1,341.64,325.82Z"/><path class="cls-75" d="M357.67,366.86c0-8.6-2.26-21.18-2.95-24.83l-14.94-20.8a5,5,0,0,1,1.13-7c2.24-1.6,6.16-1.43,7.76.8l14.76,22a4.82,4.82,0,0,1,.84,1.91c.14.68,3.35,16,3.35,27.15Z"/><path class="cls-75" d="M325,367.36c6.28-7.28,14.63-20.86,15-21.49a5,5,0,0,0,.75-2.37l3.79-30c-.45-.93-7.49-.21-10.23-.36s-2.76-.42-2.91,2.33l-.52,26.17c-2.25,3.54-8.58,13.56-13.45,19.2Z"/><path class="cls-2" d="M387.06,327.17a3.45,3.45,0,0,1-1.29-.26c-7.7-3.14-13.07-9.63-15.53-18.76a42.23,42.23,0,0,1-1.39-12.62,3.43,3.43,0,0,1,6.85.48c0,.27-1.08,18.94,12.66,24.55a3.43,3.43,0,0,1-1.3,6.61Z"/><path class="cls-76" d="M322.55,365.26l2.43,2.1c6.28-7.28,14.63-20.86,15-21.49a5,5,0,0,0,.75-2.37l.88-17.68c-1.57-.54-2.09-.32-2.83-1.61,0,0,.83,14.49.16,19C338.34,347.56,324.07,363.55,322.55,365.26Z"/><path class="cls-77" d="M351,318.59l-.19-.28Z"/><path class="cls-77" d="M351.05,318.63l0,0Z"/><path class="cls-77" d="M350.84,318.31Z"/><path class="cls-78" d="M389.1,326.25c-16.7-5.16-18.16-27.1-18.16-27.1l-2.13,5.69A64.19,64.19,0,0,0,352.59,317c-4.6-6.47-9-6.36-15.53-6.19-1.15,0-2.34.06-3.64.06h-1a10.59,10.59,0,0,0-.82,2.22,16.55,16.55,0,0,1,1.78-.07c1.32,0,2.53,0,3.7-.06,6.52-.17,9.93-.25,13.95,5.64l0,0h0l.77,1.15c3.54-3.52,10.48-9.83,18-13.51.14.61.29,1.24.46,1.88,2.46,9.13,7.83,15.62,15.53,18.76a3.39,3.39,0,0,0,3.55-.59Z"/><path class="cls-76" d="M343.31,325.85l-2.21-3.07a6.3,6.3,0,0,1-4.17-.92l2.25,3,.66,1.55Z"/><path class="cls-71" d="M379,283a2.5,2.5,0,1,0,3-2A2.57,2.57,0,0,0,379,283Z"/><path class="cls-2" d="M247.8,421.3a1.84,1.84,0,0,0-.73-1.57,9.72,9.72,0,0,0-2.59-1.15,18.4,18.4,0,0,1-3-1.2c-2-1.07-3-2.52-3-4.34a4.23,4.23,0,0,1,.8-2.53,5.24,5.24,0,0,1,2.3-1.74,8.6,8.6,0,0,1,3.36-.62,7.87,7.87,0,0,1,3.34.67,5.4,5.4,0,0,1,2.28,1.92,5,5,0,0,1,.82,2.82h-3.61a2.34,2.34,0,0,0-.76-1.87,3.11,3.11,0,0,0-2.13-.67,3.36,3.36,0,0,0-2.06.56,1.75,1.75,0,0,0-.73,1.47,1.69,1.69,0,0,0,.86,1.43,9.63,9.63,0,0,0,2.53,1.09,11,11,0,0,1,4.49,2.29,4.59,4.59,0,0,1,1.41,3.42,4.23,4.23,0,0,1-1.72,3.57,7.56,7.56,0,0,1-4.64,1.29,9,9,0,0,1-3.68-.74,5.82,5.82,0,0,1-2.53-2,5.17,5.17,0,0,1-.87-3h3.62c0,1.93,1.16,2.9,3.46,2.9a3.36,3.36,0,0,0,2-.52A1.7,1.7,0,0,0,247.8,421.3Z"/><path class="cls-2" d="M268.24,417.54a10.53,10.53,0,0,1-.91,4.53,6.83,6.83,0,0,1-2.62,3,7.7,7.7,0,0,1-7.78,0,6.85,6.85,0,0,1-2.65-3,10.19,10.19,0,0,1-.95-4.46v-.87a10.53,10.53,0,0,1,.93-4.55,6.91,6.91,0,0,1,2.64-3,7.73,7.73,0,0,1,7.78,0,7,7,0,0,1,2.63,3,10.49,10.49,0,0,1,.93,4.54Zm-3.65-.79a7.35,7.35,0,0,0-1-4.19,3.49,3.49,0,0,0-5.62,0,7.3,7.3,0,0,0-1,4.15v.85a7.44,7.44,0,0,0,1,4.16,3.21,3.21,0,0,0,2.84,1.48,3.17,3.17,0,0,0,2.79-1.42,7.45,7.45,0,0,0,1-4.16Z"/><path class="cls-2" d="M275.58,408.39l4.5,12.7,4.48-12.7h4.73V425.9h-3.62v-4.79l.36-8.26-4.72,13h-2.48l-4.72-13,.37,8.25v4.79h-3.61V408.39Z"/><path class="cls-2" d="M303,418.31h-6.92V423h8.13v2.9H292.45V408.39h11.71v2.92h-8.1v4.17H303Z"/><path class="cls-2" d="M319.73,411.31h-5.37V425.9h-3.61V411.31h-5.29v-2.92h14.27Z"/><path class="cls-2" d="M336,425.9h-3.61v-7.51h-7v7.51h-3.61V408.39h3.61v7.09h7v-7.09H336Z"/><path class="cls-2" d="M343,425.9h-3.61V408.39H343Z"/><path class="cls-2" d="M360.61,425.9H357l-7-11.52V425.9h-3.61V408.39H350l7,11.54V408.39h3.59Z"/><path class="cls-2" d="M377.62,423.69a6.37,6.37,0,0,1-2.75,1.81,11.57,11.57,0,0,1-3.95.64,7.87,7.87,0,0,1-4-1,6.6,6.6,0,0,1-2.64-2.88,10.23,10.23,0,0,1-1-4.44v-1.19a10.75,10.75,0,0,1,.89-4.54,6.45,6.45,0,0,1,2.55-2.94,8.42,8.42,0,0,1,8.77.47,6.36,6.36,0,0,1,2.08,4.33h-3.51a3.51,3.51,0,0,0-1.07-2.21,3.41,3.41,0,0,0-2.26-.69,3.22,3.22,0,0,0-2.81,1.38,7.29,7.29,0,0,0-1,4.11v1.12a6.88,6.88,0,0,0,1.05,4.16,3.57,3.57,0,0,0,3.06,1.41,4,4,0,0,0,2.9-.86v-3h-3.28V416.7h6.89Z"/><path class="cls-2" d="M400.32,420.85l2.36-12.46h3.59l-3.88,17.51h-3.63l-2.85-11.72-2.86,11.72h-3.63l-3.88-17.51h3.59l2.37,12.43,2.89-12.43h3.05Z"/><path class="cls-2" d="M418.76,418.31h-6.93V423H420v2.9H408.22V408.39h11.72v2.92h-8.11v4.17h6.93Z"/><path class="cls-2" d="M436.32,425.9h-3.61l-7-11.52V425.9h-3.61V408.39h3.61l7,11.54V408.39h3.59Z"/><path class="cls-2" d="M452.31,411.31h-5.37V425.9h-3.61V411.31H438v-2.92h14.27Z"/><path class="cls-2" d="M473.42,420.85l2.36-12.46h3.59l-3.88,17.51h-3.64L469,414.18l-2.85,11.72h-3.63l-3.88-17.51h3.59l2.37,12.43,2.89-12.43h3.05Z"/><path class="cls-2" d="M487.8,419.49h-2.87v6.41h-3.61V408.39h6.51a7.39,7.39,0,0,1,4.79,1.38,4.77,4.77,0,0,1,1.68,3.91,5.39,5.39,0,0,1-.78,3,5.2,5.2,0,0,1-2.35,1.9l3.79,7.16v.17h-3.87Zm-2.87-2.92h2.91a3,3,0,0,0,2.11-.7,2.48,2.48,0,0,0,.74-1.9,2.63,2.63,0,0,0-.7-2,2.9,2.9,0,0,0-2.16-.71h-2.9Z"/><path class="cls-2" d="M511.43,417.54a10.68,10.68,0,0,1-.91,4.53,6.9,6.9,0,0,1-2.62,3,7.72,7.72,0,0,1-7.79,0,6.91,6.91,0,0,1-2.65-3,10.33,10.33,0,0,1-.95-4.46v-.87a10.39,10.39,0,0,1,.94-4.55,6.89,6.89,0,0,1,2.63-3,7.73,7.73,0,0,1,7.78,0,6.91,6.91,0,0,1,2.64,3,10.49,10.49,0,0,1,.93,4.54Zm-3.66-.79a7.43,7.43,0,0,0-1-4.19,3.49,3.49,0,0,0-5.62,0,7.3,7.3,0,0,0-1,4.15v.85a7.44,7.44,0,0,0,1,4.16,3.46,3.46,0,0,0,5.63.06,7.45,7.45,0,0,0,1-4.16Z"/><path class="cls-2" d="M528.29,425.9h-3.6l-7-11.52V425.9h-3.61V408.39h3.61l7,11.54V408.39h3.59Z"/><path class="cls-2" d="M545.3,423.69a6.37,6.37,0,0,1-2.75,1.81,11.53,11.53,0,0,1-3.95.64,7.87,7.87,0,0,1-4-1,6.6,6.6,0,0,1-2.64-2.88,10.23,10.23,0,0,1-1-4.44v-1.19a10.75,10.75,0,0,1,.89-4.54,6.57,6.57,0,0,1,2.55-2.94,8.42,8.42,0,0,1,8.77.47A6.32,6.32,0,0,1,545.3,414h-3.51a3.55,3.55,0,0,0-1.06-2.21,3.44,3.44,0,0,0-2.27-.69,3.22,3.22,0,0,0-2.81,1.38,7.29,7.29,0,0,0-1,4.11v1.12a6.88,6.88,0,0,0,1.05,4.16,3.58,3.58,0,0,0,3.06,1.41,4,4,0,0,0,2.9-.86v-3h-3.28V416.7h6.89Z"/></g></g></svg>