<?xml version="1.0" encoding="utf-8"?>
<!-- Generator: Adobe Illustrator 22.1.0, SVG Export Plug-In . SVG Version: 6.00 Build 0)  -->
<svg version="1.1" id="Layer_1" xmlns="http://www.w3.org/2000/svg" xmlns:xlink="http://www.w3.org/1999/xlink" x="0px" y="0px"
	 viewBox="0 0 344.7 168.1" style="enable-background:new 0 0 344.7 168.1;" xml:space="preserve">
<style type="text/css">
	.st0{fill:#9D1B32;}
</style>
<g>
	<g>
		<path class="st0" d="M142,57.7c4.6-2.8,8.9-6.2,13.7-8.3c3.4-1.4,7.9-2,11.7-1.6c8.5,0.6,12.9,7.1,10.1,15.1
			c-2.8,8.3-6.9,15.9-10.5,23.8c-3.8,8.3-8.1,16.5-11.9,24.8c-1,2-1.8,5.6-0.8,6.9c2,2.4,5.2,0.2,7.1-1.4c4.6-4,9.1-8.5,13.5-12.9
			c0.8-0.8,1.4-1.8,2.6-3.2c0.2,1.2,0.6,1.8,0.4,2c-6.4,10.1-14.3,18.1-26.8,19.5c-10.1,1.2-15.5-5-13.1-14.7
			c0.6-2.4,1.4-4.6,2.6-6.9c6.2-13.1,12.7-26,18.9-39.1c1.2-2.4,2-4.8,2.6-7.5c0.8-3.8-0.8-5-4.4-3.8c-10.3,3.8-17.5,11.3-22.4,20.8
			c-6.7,13.3-13.1,26.6-19.3,40.1c-1.4,3.2-2,6.7-3.2,10.7c-8.3,2.6-15.1-2.8-14.1-12.5c0.4-2.8,1.4-5.6,2.6-8.3
			c13.1-27.4,26.4-54.8,39.5-82.2c1-2,1.6-4,2-6.2c0.4-2.8-1.2-3.8-3.8-2.8c-2,0.8-3.8,2-5.8,3c-0.8,0.4-1.6,0.6-3.4,1.4
			c5.2-7.3,18.5-9.9,24.6-5.6c3,2.2,4.6,5.2,4.2,8.7c-0.4,3.2-1,6.7-2.4,9.7C151.7,37.7,146.7,47.6,142,57.7z"/>
		<path class="st0" d="M266,47.6c5.8,0,11.7,0,17.3,0c0.2-0.8,0.4-1.2,0.4-1.4c-2.6-12.7,2.4-22.4,12.1-30c7.7-6,16.5-9.7,26.4-9.1
			c6.4,0.4,11.7,2.8,15.1,8.5c2.8,4.4,2.4,9.3-0.6,12.7c-2.8,3.2-7.5,4.2-11.3,2.6c-4-1.6-6.4-5.8-6.2-10.1c0.4-4.6,3.4-7.7,8.5-9.1
			c0.4-0.2,1-0.2,1.4-0.2c-4.6-3.6-10.7-3.6-13.7,0.8c-4.2,6-7.9,12.5-11.3,18.9c-2.8,5-5,10.5-7.9,16.5c4.6,0,8.7,0,12.7,0
			c0,0.4,0,1,0,1.4c-7.3,0-14.5,0-22,0c-0.2,0.2-0.2,0.6-0.4,0.8c6,4.2,6.2,9.7,3.4,15.3c-12.7,26.8-25.2,53.6-43.1,77.4
			c-6.2,8.3-13.5,15.1-23.8,17.9c-5.4,1.6-10.9,1.8-16.3-0.6c-5.2-2.4-8.1-6.4-8.5-12.1c-0.4-5.8,3.6-10.5,9.3-10.9
			c5.2-0.4,10.3,3.8,10.7,9.3c0.4,5.4-3.6,10.3-9.5,10.9c-0.8,0-1.4,0-2.2,0c3.4,3.6,11.3,3.8,15.3,0c3.2-3.2,6.4-6.7,8.5-10.7
			c10.1-19.5,20-39.5,29.6-59.3c3.4-6.9,6.4-13.9,9.5-20.8c1-2.2,1.8-4.6,2.4-7.3c1.2-6,0.2-7.7-5.6-9.9c-0.4-0.2-0.6-0.4-1-0.4
			C265.6,48.4,265.8,48,266,47.6z"/>
		<path class="st0" d="M92.3,97.6c-1.4,1.2-2.8,2.6-4.2,3.8c-12.5,10.3-26.2,18.1-42.5,20.6c-5.8,0.8-12.1,0.8-17.9-0.4
			C15.1,119.2,7,108.9,6,96.2S8.2,72,14.3,61.1c14.3-25.4,34.9-43.5,63.1-52c8.5-2.4,17.1-3.2,25.8-0.6
			c15.7,4.8,22.4,19.3,14.9,34.1c-6,12.3-16.3,18.7-30.2,19.1c-6.2,0.2-11.3-3.6-12.7-9.3c-1.6-5.6,0.8-11.5,5.6-14.5
			c5-3,11.5-2.4,15.7,1.8c4.2,4,5,10.3,2,15.7c-0.4,0.6-0.8,1.2-1.2,2c12.9-2.4,23.6-18.7,20.8-31c-1.6-6.7-5.8-11.3-11.9-14.1
			c-9.3-4.2-18.5-4-27.4,1.2c-10.1,6-17.7,14.5-24.6,23.8C41.5,54.9,31.6,73.6,27.8,95.2c-1,5-0.8,10.3-0.4,15.5
			c0.8,7.7,4.6,10.5,12.3,10.1c14.3-0.8,26.8-6.7,38.5-14.3c3.6-2.4,7.1-5.4,10.7-8.1c0.8-0.6,1.8-1,2.6-1.4
			C91.6,96.8,92.1,97.2,92.3,97.6z"/>
		<path class="st0" d="M240.8,102.2c-0.2,0.4-0.4,1-0.6,1.4c-10.5,10.1-22,17.5-36.9,18.9c-14.1,1.2-23.2-7.5-22.6-21.6
			c0.4-10.3,4.8-19.1,11.1-27c9.5-12.3,21.2-21.4,36.5-25.4c6.9-1.8,13.9-1.8,20.6,0.8c9.1,3.6,11.9,12.3,6.7,20.8
			c-3.8,6.2-9.9,9.9-16.3,12.7c-11.1,5-22.8,7.7-35.1,8.5c-2.2,0.2-3.6,0.8-4,3c-1.4,6.2-3.2,12.3-3.8,18.7c-0.6,6,2.4,8.3,8.5,7.5
			c12.7-1.8,23-8.3,32.2-16.7c1-0.8,2-1.4,3-2.2C240.4,101.8,240.6,102,240.8,102.2z M202.5,88.9c0.2,0.4,0.6,1,0.8,1.4
			c5.4-1.6,11.3-2.8,16.3-5c10.3-4.6,18.3-11.5,21.8-22.8c1.2-4.2,2.2-9.1-2.2-11.9c-4-2.8-8.3-0.2-11.5,2.4
			C215.8,62.3,208.7,75.4,202.5,88.9z"/>
		<path class="st0" d="M309.3,113.1c0,5.4-4.6,9.9-10.1,9.9c-5.6,0-9.9-4.6-9.9-10.3c0.2-5.4,4.6-9.7,10.3-9.5
			C305.3,103.2,309.5,107.7,309.3,113.1z"/>
	</g>
</g>
</svg>
